<svg width="24" height="24" viewBox="0 0 24 24" xmlns="http://www.w3.org/2000/svg">
<path d="M20.2106 5.11406C20.1744 5.06947 20.1328 5.02948 20.0869 4.995C18.704 3.71146 16.8867 2.99873 15 3H14.25C13.8522 3 13.4706 3.15804 13.1893 3.43934C12.908 3.72065 12.75 4.10218 12.75 4.5V9.75H5.175C5.00096 8.90354 4.54041 8.14298 3.87097 7.5965C3.20154 7.05002 2.36416 6.75106 1.5 6.75C1.30109 6.75 1.11032 6.82902 0.96967 6.96967C0.829018 7.11032 0.75 7.30109 0.75 7.5C0.75 7.69891 0.829018 7.88968 0.96967 8.03033C1.11032 8.17098 1.30109 8.25 1.5 8.25C2.09674 8.25 2.66903 8.48705 3.09099 8.90901C3.51295 9.33097 3.75 9.90326 3.75 10.5C3.75223 12.4884 4.54313 14.3948 5.94917 15.8008C7.3552 17.2069 9.26156 17.9978 11.25 18H15C16.4939 18.001 17.954 17.5556 19.1929 16.7208C20.4318 15.886 21.393 14.7001 21.953 13.3151C22.5131 11.9301 22.6464 10.4094 22.3359 8.94813C22.0255 7.48685 21.2854 6.1517 20.2106 5.11406ZM19.5628 6.61406C20.3221 7.50123 20.8048 8.59147 20.9513 9.75H15.6384L19.5628 6.61406ZM15 4.5C16.2315 4.4989 17.433 4.87913 18.4397 5.58844L14.25 8.93906V4.5H15ZM9.75 21C9.75 21.2967 9.66203 21.5867 9.4972 21.8334C9.33238 22.08 9.09811 22.2723 8.82403 22.3858C8.54994 22.4994 8.24834 22.5291 7.95736 22.4712C7.66639 22.4133 7.39912 22.2704 7.18934 22.0607C6.97956 21.8509 6.8367 21.5836 6.77882 21.2926C6.72094 21.0017 6.75065 20.7001 6.86418 20.426C6.97771 20.1519 7.16997 19.9176 7.41665 19.7528C7.66332 19.588 7.95333 19.5 8.25 19.5C8.64782 19.5 9.02936 19.658 9.31066 19.9393C9.59196 20.2206 9.75 20.6022 9.75 21ZM19.5 21C19.5 21.2967 19.412 21.5867 19.2472 21.8334C19.0824 22.08 18.8481 22.2723 18.574 22.3858C18.2999 22.4994 17.9983 22.5291 17.7074 22.4712C17.4164 22.4133 17.1491 22.2704 16.9393 22.0607C16.7296 21.8509 16.5867 21.5836 16.5288 21.2926C16.4709 21.0017 16.5006 20.7001 16.6142 20.426C16.7277 20.1519 16.92 19.9176 17.1666 19.7528C17.4133 19.588 17.7033 19.5 18 19.5C18.3978 19.5 18.7794 19.658 19.0607 19.9393C19.342 20.2206 19.5 20.6022 19.5 21Z" fill="#3B82F6"/>
</svg>
