<svg width="24" height="24" viewBox="0 0 24 24" xmlns="http://www.w3.org/2000/svg">
<path d="M19.28 4.93001L17.16 2.81001C16.38 2.03001 15.11 2.03001 14.33 2.81001L11.5 5.64001L13.62 7.76001L15.74 5.64001L19.28 9.18001C19.8424 8.6158 20.1582 7.85165 20.1582 7.05501C20.1582 6.25836 19.8424 5.49421 19.28 4.93001ZM5.49 13.77C6.08 14.36 7.03 14.36 7.61 13.77L10.08 11.3L7.96 9.17001L5.49 11.64C4.9 12.23 4.9 13.18 5.49 13.77Z" fill="#3B82F6"/>
<path d="M15.04 7.76001L13.62 9.18001L10.44 6.00001C9.85 5.40001 8.9 5.40001 8.32 5.99001C8.17971 6.12859 8.06833 6.29365 7.99231 6.47561C7.91629 6.65757 7.87714 6.85281 7.87714 7.05001C7.87714 7.24721 7.91629 7.44244 7.99231 7.6244C8.06833 7.80636 8.17971 7.97142 8.32 8.11001L11.5 11.29L4.43 18.36C3.65 19.14 3.65 20.41 4.43 21.19C5.21 21.97 6.48 21.97 7.26 21.19L16.45 12C16.5426 12.0926 16.6525 12.166 16.7735 12.2161C16.8944 12.2662 17.0241 12.292 17.155 12.292C17.2859 12.292 17.4156 12.2662 17.5365 12.2161C17.6575 12.166 17.7674 12.0926 17.86 12C17.9526 11.9074 18.026 11.7975 18.0761 11.6765C18.1262 11.5556 18.152 11.4259 18.152 11.295C18.152 11.1641 18.1262 11.0344 18.0761 10.9135C18.026 10.7925 17.9526 10.6826 17.86 10.59L15.04 7.76001Z" fill="#3B82F6"/>
</svg>
