<svg width="69" height="30" viewBox="0 0 69 30" fill="none" xmlns="http://www.w3.org/2000/svg">
<circle cx="1.37195" cy="28.2622" r="1.37195" fill="#3B82F6"/>
<circle cx="15.0914" cy="1.7378" r="1.37195" fill="#3B82F6"/>
<path d="M7.49507 3.91163C6.23488 4.63937 5.33975 5.75608 4.87465 7.02225C4.28321 8.62998 4.38365 10.4788 5.30707 12.0778L12.2816 24.158L14.1464 23.0815L9.46906 14.9804C10.7986 15.2107 12.213 14.9939 13.4732 14.2662C16.3328 12.6154 17.312 8.95917 15.6612 6.10002C14.0105 3.24048 10.3546 2.26086 7.49507 3.91163ZM12.3968 12.4014C10.5674 13.4575 8.22799 12.8306 7.17185 11.0009C6.11572 9.1712 6.74262 6.83215 8.57194 5.77601C10.4016 4.71947 12.7407 5.34598 13.7972 7.17569C14.8538 9.0054 14.2269 11.3449 12.3972 12.401L12.3968 12.4014Z" fill="#2563EB"/>
<path d="M9.29206 18.981L11.5893 22.9596C11.3282 23.6694 10.9321 24.3326 10.4124 24.9065C10.0055 25.3565 9.52202 25.7514 8.96805 26.0715C6.1089 27.7222 2.45266 26.7426 0.801899 23.8835C-0.848867 21.0243 0.130752 17.3681 2.9899 15.7173C3.54387 15.3977 4.12774 15.1765 4.72077 15.049L5.84068 16.9883C5.16355 16.9879 4.47726 17.1596 3.84836 17.5227C1.94213 18.6235 1.28892 21.0606 2.38969 22.9668C3.49007 24.873 5.92756 25.5262 7.83379 24.4255C8.46269 24.0624 8.95489 23.5543 9.29286 22.9672C9.97995 21.7748 10.0302 20.2591 9.29286 18.981H9.29206Z" fill="#3B82F6"/>
<path d="M23.9634 21.803V8.65291H29.0836C30.1325 8.65291 31.0125 8.84126 31.7237 9.21796C32.4392 9.59465 32.9793 10.1126 33.3437 10.7718C33.7126 11.4268 33.8971 12.1716 33.8971 13.0063C33.8971 13.8496 33.7126 14.5987 33.3437 15.2536C32.9748 15.9086 32.4304 16.4244 31.7103 16.8011C30.9903 17.1735 30.1036 17.3597 29.0502 17.3597H25.6568V15.4013H28.7169C29.3302 15.4013 29.8325 15.2986 30.2236 15.0931C30.6147 14.8876 30.9036 14.6051 31.0903 14.2455C31.2814 13.886 31.377 13.4729 31.377 13.0063C31.377 12.5397 31.2814 12.1288 31.0903 11.7735C30.9036 11.4182 30.6125 11.1421 30.2169 10.9452C29.8258 10.744 29.3214 10.6434 28.7036 10.6434H26.4368V21.803H23.9634Z" fill="#475569"/>
<path d="M38.3522 8.65291V21.803H35.9388V8.65291H38.3522Z" fill="#475569"/>
<path d="M40.834 21.803V11.9404H43.2474V21.803H40.834ZM42.0474 10.5407C41.6651 10.5407 41.3362 10.4187 41.0607 10.1747C40.7851 9.9264 40.6473 9.62889 40.6473 9.28217C40.6473 8.93115 40.7851 8.63365 41.0607 8.38966C41.3362 8.14138 41.6651 8.01724 42.0474 8.01724C42.4341 8.01724 42.763 8.14138 43.0341 8.38966C43.3097 8.63365 43.4474 8.93115 43.4474 9.28217C43.4474 9.62889 43.3097 9.9264 43.0341 10.1747C42.763 10.4187 42.4341 10.5407 42.0474 10.5407Z" fill="#475569"/>
<path d="M48.1426 16.0241V21.803H45.7292V11.9404H48.0359V13.6163H48.1559C48.3915 13.0641 48.7671 12.6253 49.2826 12.3C49.8027 11.9747 50.4449 11.812 51.2094 11.812C51.9161 11.812 52.5317 11.9576 53.0561 12.2486C53.585 12.5397 53.9939 12.9614 54.2828 13.5136C54.5762 14.0658 54.7206 14.7357 54.7162 15.5233V21.803H52.3028V15.8829C52.3028 15.2237 52.125 14.7078 51.7694 14.3354C51.4183 13.963 50.9316 13.7768 50.3094 13.7768C49.8871 13.7768 49.5115 13.8667 49.1826 14.0465C48.8582 14.222 48.6026 14.4767 48.416 14.8106C48.2337 15.1445 48.1426 15.549 48.1426 16.0241Z" fill="#475569"/>
<path d="M68.9634 13.0898H66.47C66.3988 12.696 66.2677 12.3471 66.0766 12.0432C65.8855 11.735 65.6477 11.4738 65.3632 11.2598C65.0788 11.0458 64.7543 10.8853 64.3899 10.7782C64.0299 10.6669 63.641 10.6113 63.2232 10.6113C62.4809 10.6113 61.8231 10.7911 61.2498 11.1507C60.6764 11.5059 60.2275 12.0282 59.903 12.7174C59.5786 13.4023 59.4164 14.2391 59.4164 15.2279C59.4164 16.2339 59.5786 17.0815 59.903 17.7706C60.2319 18.4555 60.6808 18.9735 61.2498 19.3245C61.8231 19.6712 62.4787 19.8446 63.2165 19.8446C63.6254 19.8446 64.0076 19.7932 64.3632 19.6905C64.7232 19.5835 65.0455 19.4272 65.3299 19.2218C65.6188 19.0163 65.861 18.7637 66.0566 18.4641C66.2566 18.1644 66.3944 17.822 66.47 17.4367L68.9634 17.4496C68.87 18.0746 68.6678 18.661 68.3567 19.2089C68.05 19.7568 67.6478 20.2405 67.15 20.66C66.6522 21.0753 66.0699 21.4006 65.4032 21.636C64.7366 21.8672 63.9965 21.9828 63.1832 21.9828C61.9831 21.9828 60.912 21.7152 59.9697 21.1801C59.0275 20.6451 58.2852 19.8724 57.743 18.8622C57.2007 17.852 56.9296 16.6405 56.9296 15.2279C56.9296 13.8111 57.2029 12.5996 57.7496 11.5937C58.2963 10.5835 59.0408 9.81082 59.983 9.27574C60.9253 8.74067 61.992 8.47313 63.1832 8.47313C63.9432 8.47313 64.6499 8.57586 65.3032 8.78133C65.9566 8.9868 66.5388 9.28859 67.05 9.68668C67.5611 10.0805 67.9811 10.5642 68.31 11.1378C68.6434 11.7071 68.8612 12.3578 68.9634 13.0898Z" fill="#475569"/>
</svg>
