<svg width="24" height="24" viewBox="0 0 24 24" xmlns="http://www.w3.org/2000/svg">
  <path d="M8 22C7.45 22 6.97933 21.8043 6.588 21.413C6.19667 21.0217 6.00067 20.5507 6 20V15.7C6 14.4667 6.175 13.2793 6.525 12.138C6.875 10.9967 7.425 9.859 8.175 8.725C7.54167 8.575 7.021 8.23334 6.613 7.7C6.205 7.16667 6.00067 6.56667 6 5.9V4.85C6 4.05 6.346 3.37934 7.038 2.838C7.73 2.29667 8.45067 2.06734 9.2 2.15L18.1 3.025C18.3833 3.05834 18.6043 3.171 18.763 3.363C18.9217 3.555 19.0007 3.77567 19 4.025V7C19 7.25 18.9127 7.471 18.738 7.663C18.5633 7.855 18.3507 7.96734 18.1 8L17.2 8.1C17.4333 8.91667 17.7417 9.65 18.125 10.3C18.5083 10.95 18.9667 11.4167 19.5 11.7L18.5 13.45C17.6167 12.9333 16.9333 12.221 16.45 11.313C15.9667 10.405 15.5833 9.39234 15.3 8.275L14.2 8.375C14.3333 9.20834 14.5877 10.05 14.963 10.9C15.3383 11.75 15.7173 12.5167 16.1 13.2C16.4 13.7333 16.625 14.2917 16.775 14.875C16.925 15.4583 17 16.05 17 16.65V20C17 20.55 16.8043 21.021 16.413 21.413C16.0217 21.805 15.5507 22.0007 15 22H8ZM8 5.1V5.9C8 6.2 8.10833 6.44167 8.325 6.625C8.54167 6.80834 8.8 6.88334 9.1 6.85L17 6.1V4.9L9.1 4.15C8.8 4.11667 8.54167 4.19167 8.325 4.375C8.10833 4.55834 8 4.8 8 5.1Z" fill="#3B82F6"/>
</svg>