<svg width="50" height="11" viewBox="0 0 50 11" fill="none" xmlns="http://www.w3.org/2000/svg">
<path fill-rule="evenodd" clip-rule="evenodd" d="M44.1096 10.9522C46.9257 10.9522 49.2086 8.66929 49.2086 5.85316C49.2086 3.03702 46.9257 0.754089 44.1096 0.754089C41.2934 0.754089 39.0105 3.03702 39.0105 5.85316C39.0105 8.66929 41.2934 10.9522 44.1096 10.9522Z" fill="#262C2D"/>
<path fill-rule="evenodd" clip-rule="evenodd" d="M44.1095 9.04006C45.8696 9.04006 47.2964 7.61323 47.2964 5.85315C47.2964 4.09306 45.8696 2.66623 44.1095 2.66623C42.3494 2.66623 40.9226 4.09306 40.9226 5.85315C40.9226 7.61323 42.3494 9.04006 44.1095 9.04006Z" fill="#121515"/>
<path opacity="0.4" fill-rule="evenodd" clip-rule="evenodd" d="M44.1096 5.21578C44.4616 5.21578 44.7469 4.93041 44.7469 4.57839C44.7469 4.22638 44.4616 3.94101 44.1096 3.94101C43.7575 3.94101 43.4722 4.22638 43.4722 4.57839C43.4722 4.93041 43.7575 5.21578 44.1096 5.21578Z" fill="#636F73"/>
<path fill-rule="evenodd" clip-rule="evenodd" d="M0.40332 5.85316C0.40332 4.64625 1.38172 3.66785 2.58864 3.66785H29.5409C30.7478 3.66785 31.7262 4.64625 31.7262 5.85316V5.85316C31.7262 7.06008 30.7478 8.03848 29.5409 8.03848H2.58863C1.38172 8.03848 0.40332 7.06008 0.40332 5.85316V5.85316Z" fill="#262C2D"/>
</svg>
